<?xml version="1.0" encoding="utf-8"?>
<!-- Generator: Adobe Illustrator 21.0.0, SVG Export Plug-In . SVG Version: 6.00 Build 0)  -->
<svg version="1.1" id="图层_1" xmlns="http://www.w3.org/2000/svg" xmlns:xlink="http://www.w3.org/1999/xlink" x="0px" y="0px"
	 viewBox="0 0 46 10" style="enable-background:new 0 0 46 10;" xml:space="preserve">
<style type="text/css">
	.st0{fill:#231815;}
</style>
<g>
	<path d="M2.9,3.7L1.7,4.3C1.5,4.4,1.3,4.5,1.3,4.5c-0.1,0-0.2,0-0.3-0.1S0.9,4.2,0.9,4c0-0.2,0-0.4,0.1-0.6S1.2,3,1.3,2.9
		C1.4,2.7,1.7,2.6,2,2.4S2.9,2,3.5,1.8s1.1-0.4,1.7-0.5S6.3,1,6.8,1c0.3,0,0.6,0.1,0.8,0.2s0.2,0.4,0.2,0.9c0,0.3-0.1,0.5-0.3,0.8
		S7.2,3.5,6.9,3.8S6.2,4.6,5.6,5.4c0.4-0.1,0.6-0.1,0.8-0.1s0.5,0,0.9-0.1c0.5-0.8,0.9-1.3,1.3-1.8s0.6-0.8,0.8-1.1s0.4-0.5,0.4-0.5
		c0.1-0.1,0.1-0.1,0.2-0.1S10,1.8,10,1.9c0,0.2,0,0.3,0,0.4S9.9,2.5,9.8,2.6S9.7,2.7,9.7,2.7C9.6,2.9,9.4,3.1,9.2,3.4
		S8.9,3.9,8.7,4.2S8.3,4.8,8.1,5.2c0.4,0,0.9,0.1,1.3,0.2L8.3,6.8C8,6.7,7.6,6.7,7.1,6.7C7,6.9,6.9,7.1,6.9,7.2S6.7,7.5,6.7,7.6
		S6.6,7.9,6.6,8c0,0.1,0,0.1,0.1,0.2s0.1,0.2,0.1,0.2c0,0.1-0.1,0.2-0.2,0.2S6.3,8.8,6.2,8.9S5.9,9,5.8,9C5.7,9,5.6,8.9,5.6,8.6
		c0-0.5,0.2-1.1,0.7-1.9C5.7,6.8,5,6.9,4.2,7C3.9,7.3,3.7,7.6,3.5,7.9S3.2,8.4,3.1,8.6S2.9,8.9,2.8,9S2.7,9,2.6,9
		C2.5,9,2.4,9,2.3,8.9c0,0-0.1-0.1-0.1-0.1s0-0.1,0-0.1s0-0.1,0-0.1c0,0,0-0.1,0.1-0.2s0.2-0.3,0.4-0.5S3,7.3,3.1,7.2
		c-0.1,0-0.2,0-0.4,0c-0.2,0-0.4,0-0.5-0.1S2,6.9,2,6.8c0-0.1,0-0.3,0.1-0.4s0.2-0.3,0.3-0.4s0.2-0.1,0.3-0.1c0.1,0,0.2,0,0.3,0.1
		l1.5-0.4C5.3,4.7,6,4,6.4,3.4S7,2.6,7,2.4c0-0.1,0-0.2-0.1-0.2S6.8,2.1,6.7,2.1S6.5,2,6.4,2c-0.1,0-0.3,0-0.6,0.1s-0.6,0.2-1,0.3
		S3.9,2.8,3.4,3C2.9,3.2,2.7,3.3,2.7,3.3c0,0.1,0,0.1,0.1,0.1s0.1,0,0.2,0s0.1,0,0.1,0c0,0,0,0-0.1,0.1S3,3.6,2.9,3.7z"/>
	<path d="M10.4,7.2v0.1c0,0.2,0.1,0.4,0.2,0.5s0.3,0.2,0.4,0.2c0.2,0,0.4,0,0.6-0.1s0.4-0.2,0.6-0.4s0.5-0.3,0.7-0.6v0.4
		c-0.4,0.5-0.9,0.9-1.2,1.2S10.9,9,10.5,9c-0.3,0-0.6-0.1-0.8-0.4S9.4,7.9,9.4,7.5c0-0.4,0.1-0.8,0.3-1.1s0.5-0.7,0.9-1.1
		c0.3-0.3,0.6-0.4,0.9-0.6s0.6-0.2,0.8-0.2c0.2,0,0.3,0,0.4,0.1s0.2,0.2,0.2,0.4c0,0.2-0.1,0.5-0.3,0.7s-0.5,0.5-0.8,0.7
		S10.9,7,10.4,7.2z M10.4,6.8c0.4-0.1,0.7-0.3,0.9-0.5s0.4-0.4,0.6-0.6s0.2-0.3,0.2-0.4c0-0.1,0-0.1-0.1-0.1c-0.1,0-0.2,0-0.3,0.1
		s-0.3,0.2-0.5,0.4S10.8,6,10.7,6.2S10.5,6.6,10.4,6.8z"/>
	<path d="M15.7,6.9v0.4c-0.8,1.1-1.5,1.6-2,1.6c-0.3,0-0.5-0.2-0.7-0.5s-0.2-0.7-0.2-1.2c0-0.4,0.1-0.9,0.3-1.4s0.4-1.1,0.8-1.7
		s0.6-1.1,1-1.5s0.7-0.7,0.9-0.9c0.1-0.1,0.2-0.1,0.3-0.1c0.1,0,0.1,0,0.2,0.1s0,0.2,0,0.4c0,0.5-0.2,1.2-0.7,2s-1.1,1.6-1.8,2.4
		c0,0.2-0.1,0.4-0.1,0.5c0,0.3,0.1,0.5,0.2,0.6S14.1,8,14.3,8c0.1,0,0.2,0,0.3-0.1s0.2-0.2,0.4-0.3S15.4,7.3,15.7,6.9z M14,5.9
		c0.2-0.2,0.4-0.4,0.6-0.7s0.4-0.5,0.5-0.8s0.3-0.5,0.4-0.8s0.1-0.4,0.1-0.5c0-0.1,0-0.1-0.1-0.1c0,0-0.1,0-0.1,0.1
		c-0.2,0.2-0.5,0.6-0.8,1.1S14.1,5.3,14,5.9z"/>
	<path d="M18.5,6.9v0.4C17.7,8.4,17,9,16.5,9c-0.3,0-0.5-0.2-0.7-0.5s-0.2-0.7-0.2-1.2c0-0.4,0.1-0.9,0.3-1.4s0.4-1.1,0.8-1.7
		s0.6-1.1,1-1.5s0.7-0.7,0.9-0.9c0.1-0.1,0.2-0.1,0.3-0.1c0.1,0,0.1,0,0.2,0.1s0,0.2,0,0.4c0,0.5-0.2,1.2-0.7,2s-1.1,1.6-1.8,2.4
		c0,0.2-0.1,0.4-0.1,0.5c0,0.3,0.1,0.5,0.2,0.6S16.9,8,17.1,8c0.1,0,0.2,0,0.3-0.1s0.2-0.2,0.4-0.3S18.1,7.3,18.5,6.9z M16.7,5.9
		c0.2-0.2,0.4-0.4,0.6-0.7s0.4-0.5,0.5-0.8s0.3-0.5,0.4-0.8s0.1-0.4,0.1-0.5c0-0.1,0-0.1-0.1-0.1c0,0-0.1,0-0.1,0.1
		c-0.2,0.2-0.5,0.6-0.8,1.1S16.9,5.3,16.7,5.9z"/>
	<path d="M22.2,7v0.4c-0.3,0.2-0.5,0.4-0.6,0.5s-0.4,0.1-0.7,0.1c-0.5,0.6-1,0.9-1.3,0.9c-0.2,0-0.4-0.1-0.6-0.2S18.6,8.3,18.5,8
		s-0.2-0.5-0.2-0.8c0-0.3,0.1-0.5,0.2-0.8s0.4-0.6,0.6-0.9s0.5-0.5,0.8-0.6s0.6-0.2,0.8-0.2c0.2,0,0.3,0,0.4,0.1s0.2,0.1,0.2,0.2
		c0,0.1,0,0.2-0.1,0.3c0.1,0,0.3,0.1,0.3,0.2s0.1,0.2,0.1,0.4c0,0.2,0,0.4-0.1,0.7S21.5,7,21.3,7.3l0.1,0.1h0.1c0.1,0,0.1,0,0.2,0
		s0.1-0.1,0.2-0.1S22,7.1,22.2,7z M21,5.4c-0.3,0.2-0.6,0.4-0.8,0.5s-0.4,0.3-0.6,0.5s-0.3,0.3-0.3,0.5c-0.1,0.4-0.1,0.7-0.1,0.7
		c0,0.3,0.2,0.4,0.5,0.4c0.2,0,0.4-0.1,0.8-0.4c-0.1-0.2-0.1-0.4-0.1-0.5c0-0.2,0.1-0.5,0.2-0.8S20.8,5.8,21,5.4z"/>
	<path d="M28.2,7c-0.3,0.4-0.7,0.7-0.9,1s-0.5,0.5-0.7,0.6s-0.3,0.2-0.3,0.2c-0.1,0-0.2-0.1-0.3-0.2s-0.2-0.4-0.3-0.6
		s-0.1-0.5-0.1-0.8c0-0.4,0.2-0.8,0.6-1.1s0.8-0.7,1.3-1s0.8-0.4,1.1-0.4c0.2,0,0.4,0.1,0.6,0.4c0.3-0.6,0.6-1.2,0.9-1.7
		s0.5-0.9,0.7-1.1s0.3-0.4,0.4-0.4c0.1,0,0.2,0,0.2,0.1s0.1,0.2,0.1,0.3c0,0.2-0.1,0.6-0.4,1s-0.6,1-0.9,1.4s-0.5,0.9-0.7,1.4
		s-0.3,0.9-0.3,1.3c0,0.4,0.1,0.5,0.3,0.5c0.1,0,0.3-0.1,0.5-0.2s0.5-0.4,0.9-0.8v0.4C29.7,8.5,29,9,28.6,9c-0.2,0-0.3-0.1-0.4-0.2
		s-0.1-0.3-0.1-0.6C28.1,7.8,28.1,7.4,28.2,7z M28.6,5.6c-0.3,0.1-0.8,0.3-1.2,0.6s-0.8,0.4-0.8,0.5c-0.1,0.1-0.2,0.2-0.2,0.4
		s-0.1,0.4-0.1,0.5c0,0.1,0,0.1,0.1,0.2s0.1,0.1,0.1,0.1c0.1,0,0.1,0,0.2-0.1s0.2-0.1,0.3-0.3s0.3-0.2,0.3-0.3
		c0.1-0.1,0.2-0.2,0.4-0.4s0.4-0.3,0.5-0.5s0.2-0.2,0.3-0.4S28.6,5.7,28.6,5.6z"/>
	<path d="M34.3,7v0.4c-0.3,0.2-0.5,0.4-0.6,0.5S33.3,7.9,33,7.9c-0.5,0.6-1,0.9-1.3,0.9c-0.2,0-0.4-0.1-0.6-0.2S30.7,8.3,30.6,8
		s-0.2-0.5-0.2-0.8c0-0.3,0.1-0.5,0.2-0.8s0.4-0.6,0.6-0.9s0.5-0.5,0.8-0.6s0.6-0.2,0.8-0.2c0.2,0,0.3,0,0.4,0.1s0.2,0.1,0.2,0.2
		c0,0.1,0,0.2-0.1,0.3c0.1,0,0.3,0.1,0.3,0.2s0.1,0.2,0.1,0.4c0,0.2,0,0.4-0.1,0.7S33.5,7,33.4,7.3l0.1,0.1h0.1c0.1,0,0.1,0,0.2,0
		s0.1-0.1,0.2-0.1S34.1,7.1,34.3,7z M33.1,5.4c-0.3,0.2-0.6,0.4-0.8,0.5s-0.4,0.3-0.6,0.5s-0.3,0.3-0.3,0.5
		c-0.1,0.4-0.1,0.7-0.1,0.7c0,0.3,0.2,0.4,0.5,0.4c0.2,0,0.4-0.1,0.8-0.4c-0.1-0.2-0.1-0.4-0.1-0.5c0-0.2,0.1-0.5,0.2-0.8
		S32.9,5.8,33.1,5.4z"/>
	<path d="M38,7v0.4c-0.3,0.2-0.5,0.4-0.6,0.5S37,7.9,36.8,7.9c-0.5,0.6-1,0.9-1.3,0.9c-0.2,0-0.4-0.1-0.6-0.2S34.5,8.3,34.4,8
		s-0.2-0.5-0.2-0.8c0-0.3,0.1-0.5,0.2-0.8s0.4-0.6,0.6-0.9S35.7,5,36,4.9s0.6-0.2,0.8-0.2c0.2,0,0.3,0,0.4,0.1s0.2,0.1,0.2,0.2
		c0,0.1,0,0.2-0.1,0.3c0.1,0,0.3,0.1,0.3,0.2s0.1,0.2,0.1,0.4c0,0.2,0,0.4-0.1,0.7S37.3,7,37.1,7.3l0.1,0.1h0.1c0.1,0,0.1,0,0.2,0
		s0.1-0.1,0.2-0.1S37.9,7.1,38,7z M36.8,5.4C36.5,5.6,36.2,5.8,36,6s-0.4,0.3-0.6,0.5s-0.3,0.3-0.3,0.5C35,7.4,35,7.6,35,7.6
		C35,7.9,35.1,8,35.5,8c0.2,0,0.4-0.1,0.8-0.4c-0.1-0.2-0.1-0.4-0.1-0.5c0-0.2,0.1-0.5,0.2-0.8S36.6,5.8,36.8,5.4z"/>
	<path d="M41.8,7v0.4c-0.3,0.2-0.5,0.4-0.6,0.5s-0.4,0.1-0.7,0.1c-0.5,0.6-1,0.9-1.3,0.9c-0.2,0-0.4-0.1-0.6-0.2S38.2,8.3,38.1,8
		S38,7.5,38,7.2c0-0.3,0.1-0.5,0.2-0.8s0.4-0.6,0.6-0.9s0.5-0.5,0.8-0.6s0.6-0.2,0.8-0.2c0.2,0,0.3,0,0.4,0.1s0.2,0.1,0.2,0.2
		c0,0.1,0,0.2-0.1,0.3c0.1,0,0.3,0.1,0.3,0.2s0.1,0.2,0.1,0.4c0,0.2,0,0.4-0.1,0.7S41.1,7,40.9,7.3L41,7.4h0.1c0.1,0,0.1,0,0.2,0
		s0.1-0.1,0.2-0.1S41.6,7.1,41.8,7z M40.6,5.4C40.3,5.6,40,5.8,39.8,6s-0.4,0.3-0.6,0.5s-0.3,0.3-0.3,0.5c-0.1,0.4-0.1,0.7-0.1,0.7
		c0,0.3,0.2,0.4,0.5,0.4c0.2,0,0.4-0.1,0.8-0.4C40,7.4,40,7.2,40,7.1c0-0.2,0.1-0.5,0.2-0.8S40.4,5.8,40.6,5.4z"/>
	<path d="M45.3,7v0.4c-0.4,0.4-0.8,0.7-1,1s-0.5,0.4-0.7,0.5s-0.5,0.2-0.7,0.2c-0.2,0-0.4-0.1-0.6-0.3S42,8.4,41.9,8.1
		s-0.2-0.6-0.2-0.9c0-0.3,0.1-0.5,0.2-0.7s0.3-0.5,0.7-0.8c0.4-0.4,0.8-0.7,1.1-0.9s0.6-0.3,0.8-0.3c0.1,0,0.3,0,0.4,0.1
		S45,4.9,45,5c0,0.1-0.1,0.3-0.2,0.5S44.5,6,44.4,6.2S44.1,6.4,44,6.4c-0.1,0-0.2-0.1-0.2-0.2c0,0,0-0.1,0-0.1s0-0.1,0-0.1
		c0,0,0-0.1,0-0.1s-0.1,0-0.1,0c-0.4,0.3-0.7,0.5-0.8,0.6S42.6,6.9,42.5,7s-0.1,0.2-0.1,0.4c0,0.2,0.1,0.4,0.2,0.6s0.3,0.2,0.6,0.2
		c0.2,0,0.5-0.1,0.9-0.3S44.8,7.4,45.3,7z"/>
</g>
<g>
	<rect x="3.1" y="7" class="st0" width="39" height="1"/>
</g>
</svg>
