<?xml version="1.0" encoding="utf-8"?>
<!-- Generator: Adobe Illustrator 21.0.0, SVG Export Plug-In . SVG Version: 6.00 Build 0)  -->
<svg version="1.1" id="图层_1" xmlns="http://www.w3.org/2000/svg" xmlns:xlink="http://www.w3.org/1999/xlink" x="0px" y="0px"
	 viewBox="0 0 38 48" style="enable-background:new 0 0 38 48;" xml:space="preserve">
<style type="text/css">
	.st0{fill:#FFFFFF;}
</style>
<path class="st0" d="M35.1,30.1c-0.8-4.5-3.9-7.5-3.9-7.5c0.4-4.1-1.2-4.8-1.2-4.8C29.7,5.3,19.3,5.5,19,5.5S8.3,5.3,7.9,18
	c0,0-1.6,0.7-1.2,4.8c0,0-3.2,2.9-3.9,7.5c0,0-0.4,7.6,3.6,0.9c0,0,0.9,2.5,2.6,4.8c0,0-2.9,1-2.7,3.7c0,0-0.1,3,6.3,2.8
	c0,0,4.5-0.3,5.8-2.3h1.2c1.4,2,5.8,2.3,5.8,2.3c6.3,0.2,6.3-2.8,6.3-2.8C32,37,29.1,36,29.1,36c1.6-2.3,2.6-4.8,2.6-4.8
	C35.5,37.8,35.1,30.1,35.1,30.1L35.1,30.1z"/>
</svg>
