<?xml version="1.0" encoding="utf-8"?>
<!-- Generator: Adobe Illustrator 21.0.0, SVG Export Plug-In . SVG Version: 6.00 Build 0)  -->
<svg version="1.1" id="图层_1" xmlns="http://www.w3.org/2000/svg" xmlns:xlink="http://www.w3.org/1999/xlink" x="0px" y="0px"
	 viewBox="0 0 38 48" style="enable-background:new 0 0 38 48;" xml:space="preserve">
<style type="text/css">
	.st0{fill:#FFFFFF;}
</style>
<g>
	<path class="st0" d="M28.4,24.5c-1.5-0.3-0.8-1.1-0.8-1.1s1.4-2.4-0.3-4.1c-2.1-2.1-7.3,0.3-7.3,0.3c-2,0.6-1.5-0.3-1.2-1.8
		c0-1.8-0.6-4.8-5.9-3c-5.3,1.8-9.8,8.1-9.8,8.1c-3.1,4.2-2.7,7.4-2.7,7.4c0.8,7.2,8.4,9.1,14.3,9.6c6.2,0.5,14.6-2.1,17.2-7.6
		C34.5,26.9,29.9,24.8,28.4,24.5z M15.2,37.9C9,38.2,4.1,35.1,4.1,30.9c0-4.1,5-7.4,11.2-7.7c6.2-0.3,11.2,2.3,11.2,6.4
		C26.4,33.7,21.4,37.6,15.2,37.9z"/>
	<path class="st0" d="M14,25.9c-6.2,0.7-5.5,6.5-5.5,6.5s-0.1,1.8,1.7,2.8c3.6,2,7.4,0.8,9.3-1.7C21.3,31.1,20.2,25.2,14,25.9z
		 M12.4,34.1c-1.2,0.1-2.1-0.5-2.1-1.5c0-1,0.8-2,2-2.1c1.3-0.1,2.2,0.6,2.2,1.6C14.5,33.1,13.6,34,12.4,34.1z M16.1,31
		c-0.4,0.3-0.9,0.3-1.1-0.1c-0.2-0.3-0.1-0.9,0.3-1.2c0.5-0.3,0.9-0.2,1.1,0.1C16.6,30.1,16.5,30.7,16.1,31z M26.4,8.1
		c-0.9,0-1.5,0.7-1.5,1.5c0,0.8,0.7,1.5,1.5,1.5c4.4,0,8,3.6,8,8c0,0.5,0,1-0.1,1.5l0,0c0,0.1,0,0.1,0,0.2c0,0.8,0.7,1.5,1.5,1.5
		c0.7,0,1.3-0.5,1.5-1.2h0c0,0,0,0,0,0c0-0.1,0-0.2,0-0.4c0.1-0.6,0.1-1.1,0.1-1.7C37.6,13,32.6,8.1,26.4,8.1z"/>
	<path class="st0" d="M26.4,13c-0.7,0-1.3,0.6-1.3,1.3c0,0.7,0.6,1.3,1.3,1.3c2,0,3.6,1.6,3.6,3.6c0,0.2,0,0.3,0,0.5l0,0
		c0,0.1,0,0.1,0,0.2c0,0.7,0.6,1.3,1.3,1.3c0.6,0,1.2-0.5,1.2-1.1l0,0c0,0,0-0.1,0-0.1c0,0,0,0,0-0.1c0,0,0,0,0,0c0-0.2,0-0.4,0-0.6
		C32.6,15.8,29.8,13,26.4,13L26.4,13z"/>
</g>
</svg>
