<?xml version="1.0" encoding="utf-8"?>
<!-- Generator: Adobe Illustrator 21.0.0, SVG Export Plug-In . SVG Version: 6.00 Build 0)  -->
<svg version="1.1" id="图层_1" xmlns="http://www.w3.org/2000/svg" xmlns:xlink="http://www.w3.org/1999/xlink" x="0px" y="0px"
	 viewBox="0 0 38 48" style="enable-background:new 0 0 38 48;" xml:space="preserve">
<style type="text/css">
	.st0{fill:#FFFFFF;}
	.st1{fill:#F4EA2A;}
</style>
<path class="st0" d="M25.6,18c0.4,0,0.8,0,1.3,0.1c-1.1-5.3-6.8-9.2-13.3-9.2C6.3,8.9,0.4,13.8,0.4,20c0,3.6,2,6.6,5.3,8.9l-1.3,4
	L9,30.6c1.6,0.3,3,0.7,4.6,0.7c0.4,0,0.8,0,1.2,0c-0.3-0.9-0.4-1.8-0.4-2.8C14.4,22.7,19.3,18,25.6,18z M18.5,14.5
	c1,0,1.6,0.7,1.6,1.6c0,1-0.7,1.6-1.6,1.6c-1,0-2-0.7-2-1.6C16.5,15.1,17.5,14.5,18.5,14.5z M9.3,17.7c-1,0-2-0.7-2-1.6
	c0-1,1-1.6,2-1.6c1,0,1.6,0.7,1.6,1.6C10.9,17.1,10.3,17.7,9.3,17.7z M37.6,28.3c0-5.3-5.3-9.5-11.2-9.5c-6.3,0-11.2,4.3-11.2,9.5
	c0,5.3,4.9,9.5,11.2,9.5c1.3,0,2.6-0.3,3.9-0.7l3.6,2l-1-3.3C35.6,33.9,37.6,31.2,37.6,28.3z M22.8,26.6c-0.7,0-1.3-0.7-1.3-1.3
	c0-0.7,0.7-1.3,1.3-1.3c1,0,1.6,0.7,1.6,1.3C24.4,26,23.8,26.6,22.8,26.6z M30,26.6c-0.6,0-1.3-0.7-1.3-1.3c0-0.7,0.7-1.3,1.3-1.3
	c1,0,1.6,0.7,1.6,1.3C31.7,26,31,26.6,30,26.6z"/>
<path class="st1" d="M25.6,18c0.4,0,0.9,0,1.3,0.1c-1.1-5.3-6.8-9.3-13.3-9.3C6.3,8.8,0.3,13.7,0.3,20c0,3.6,2,6.6,5.3,8.9l-1.3,4
	l4.6-2.3c1.7,0.3,3,0.7,4.6,0.7c0.4,0,0.8,0,1.2,0c-0.3-0.9-0.4-1.8-0.4-2.8C14.4,22.7,19.3,18,25.6,18z M18.5,14.4
	c1,0,1.7,0.7,1.7,1.6c0,1-0.7,1.7-1.7,1.7c-1,0-2-0.7-2-1.7C16.5,15.1,17.5,14.4,18.5,14.4z M9.3,17.7c-1,0-2-0.7-2-1.7
	c0-1,1-1.6,2-1.6s1.6,0.7,1.6,1.6C10.9,17.1,10.2,17.7,9.3,17.7z M37.7,28.3c0-5.3-5.3-9.6-11.2-9.6c-6.3,0-11.2,4.3-11.2,9.6
	c0,5.3,5,9.6,11.2,9.6c1.3,0,2.6-0.3,4-0.7l3.6,2l-1-3.3C35.7,33.9,37.7,31.3,37.7,28.3z M22.8,26.6c-0.7,0-1.3-0.7-1.3-1.3
	c0-0.7,0.7-1.3,1.3-1.3c1,0,1.7,0.7,1.7,1.3C24.5,26,23.8,26.6,22.8,26.6z M30.1,26.6c-0.7,0-1.3-0.7-1.3-1.3c0-0.7,0.7-1.3,1.3-1.3
	c1,0,1.7,0.7,1.7,1.3C31.7,26,31.1,26.6,30.1,26.6z"/>
</svg>
