<?xml version="1.0" encoding="utf-8"?>
<!-- Generator: Adobe Illustrator 21.0.0, SVG Export Plug-In . SVG Version: 6.00 Build 0)  -->
<svg version="1.1" id="图层_1" xmlns="http://www.w3.org/2000/svg" xmlns:xlink="http://www.w3.org/1999/xlink" x="0px" y="0px"
	 viewBox="0 0 38 48" style="enable-background:new 0 0 38 48;" xml:space="preserve">
<style type="text/css">
	.st0{fill:#F4EA2A;}
</style>
<g>
	<path class="st0" d="M28.3,24.5c-1.5-0.3-0.7-1.1-0.7-1.1s1.4-2.3-0.3-4.1c-2.1-2.1-7.3,0.3-7.3,0.3c-2,0.6-1.4-0.3-1.2-1.8
		c0-1.8-0.6-4.8-5.8-3c-5.2,1.8-9.7,8.1-9.7,8.1c-3.1,4.2-2.7,7.4-2.7,7.4c0.8,7.1,8.3,9.1,14.2,9.5c6.2,0.5,14.5-2.1,17-7.5
		C34.4,26.9,29.8,24.8,28.3,24.5z M15.3,37.8C9.1,38,4.2,35,4.2,30.9c0-4.1,5-7.4,11.1-7.7c6.1-0.3,11.1,2.2,11.1,6.3
		C26.4,33.6,21.4,37.5,15.3,37.8z"/>
	<path class="st0" d="M14,25.9c-6.2,0.7-5.5,6.5-5.5,6.5s-0.1,1.8,1.7,2.8c3.6,2,7.3,0.8,9.2-1.7C21.3,31.1,20.2,25.2,14,25.9z
		 M12.5,34c-1.2,0.1-2.1-0.5-2.1-1.5c0-1,0.8-2,2-2.1c1.3-0.1,2.2,0.6,2.2,1.6C14.6,33,13.6,33.9,12.5,34z M16.1,30.9
		c-0.4,0.3-0.9,0.3-1.1-0.1c-0.2-0.3-0.1-0.9,0.3-1.2c0.5-0.3,0.9-0.2,1.1,0.1C16.6,30.1,16.5,30.6,16.1,30.9z M26.4,8.2
		c-0.8,0-1.5,0.7-1.5,1.5c0,0.8,0.7,1.5,1.5,1.5c4.4,0,8,3.6,8,8c0,0.5,0,1-0.1,1.5l0,0c0,0.1,0,0.1,0,0.2c0,0.8,0.7,1.5,1.5,1.5
		c0.7,0,1.3-0.5,1.5-1.1h0c0,0,0,0,0,0c0-0.1,0-0.2,0-0.4c0.1-0.5,0.1-1.1,0.1-1.7C37.4,13.1,32.5,8.2,26.4,8.2z"/>
	<path class="st0" d="M26.4,13.1c-0.7,0-1.3,0.6-1.3,1.3c0,0.7,0.6,1.3,1.3,1.3c2,0,3.6,1.6,3.6,3.6c0,0.2,0,0.3,0,0.5l0,0
		c0,0.1,0,0.1,0,0.1c0,0.7,0.6,1.3,1.3,1.3c0.6,0,1.2-0.5,1.2-1.1l0,0c0,0,0-0.1,0-0.1c0,0,0,0,0-0.1c0,0,0,0,0,0c0-0.2,0-0.4,0-0.6
		C32.5,15.9,29.8,13.1,26.4,13.1L26.4,13.1z"/>
</g>
</svg>
